<?xml version="1.0" encoding="UTF-8" standalone="no"?>
<!DOCTYPE svg PUBLIC "-//W3C//DTD SVG 1.1//EN" "http://www.w3.org/Graphics/SVG/1.1/DTD/svg11.dtd">
<svg width="1160px" height="465px" version="1.1" xmlns="http://www.w3.org/2000/svg" xmlns:xlink="http://www.w3.org/1999/xlink" xml:space="preserve" xmlns:serif="http://www.serif.com/" style="fill-rule:evenodd;clip-rule:evenodd;stroke-linejoin:round;stroke-miterlimit:2;">
    <g transform="matrix(1,0,0,1,-330,-505)">
        <g transform="matrix(1,0,0,0.977778,240,295.618)">
            <g id="Prime" transform="matrix(1.18376,0,0,1.21067,-657.447,24.376)">
                <g id="Prime-Safe" serif:id="Prime Safe" transform="matrix(0.847938,0,0,0.799341,-212.949,-234.958)">
                    <path d="M2151.44,566.87C2151.44,524.684 2119.16,490.434 2079.39,490.434L1067.84,490.434C1028.07,490.434 995.785,524.684 995.785,566.87L995.785,904.365C995.785,946.551 1028.07,980.801 1067.84,980.801L2079.39,980.801C2119.16,980.801 2151.44,946.551 2151.44,904.365L2151.44,566.87Z" style="fill:none;"/>
                </g>
                <g id="Orbit" transform="matrix(0.844763,0,0,0.844763,-881.012,-9.35495)">
                    <path d="M2162.75,522.315C2162.82,522.212 2163.35,521.492 2163.77,520.885C2163.95,520.614 2164.26,520.451 2164.59,520.451L2195.79,520.451C2196.21,520.451 2196.59,520.715 2196.73,521.11C2199.75,529.413 2202.25,540.887 2202.48,549.188C2202.48,549.311 2202.46,549.433 2202.42,549.55C2199.4,558.079 2189.97,587.714 2149.5,608.232C2129.77,618.233 2105.71,623.057 2078.58,621.582C2050.4,620.049 2019.47,611.755 1987.76,595.879C1955.56,579.756 1926.58,557.845 1902.38,532.478C1878.51,507.452 1859.93,479.753 1847.53,451.68C1835.58,424.613 1829.96,397.76 1829.96,372.959C1829.96,269.159 1926.95,262.05 1946.81,261.851C2039.47,260.923 2092.14,316.954 2092.14,316.954C2092.5,317.346 2092.5,317.961 2092.12,318.343C2091.74,318.726 2091.12,318.739 2090.73,318.374C2090.73,318.374 2025.5,258.149 1936.38,270.56C1914.72,273.576 1895.8,281.798 1881.77,295.592C1863.33,313.72 1856.09,338.818 1858.84,366.498C1862.98,408.29 1889.83,455.933 1935.35,494.633C1980.89,533.361 2034.86,554.396 2080.79,555.15C2111.24,555.651 2138.15,547.23 2156.63,529.067C2158.78,526.949 2160.78,524.736 2162.63,522.437C2162.67,522.392 2162.71,522.352 2162.75,522.315Z" style="fill:rgb(194,0,96);"/>
                </g>
                <g id="Admiral" transform="matrix(0.844763,0,0,0.844763,302.387,-1466.32)">
                    <path d="M793.641,2227.14L795.52,2211.84C784.418,2224.8 770.395,2231.29 753.45,2231.29C736.16,2231.29 723.514,2225.15 715.511,2212.88C707.509,2200.6 704.877,2183.31 707.616,2161C709.527,2145.44 713.501,2132.09 719.539,2120.93C725.576,2109.78 733.23,2101.31 742.5,2095.52C751.77,2089.72 762.197,2086.83 773.782,2086.83C788.997,2086.83 800.269,2092.19 807.598,2102.91L815.082,2041.96L862.025,2041.96L839.288,2227.14L793.641,2227.14ZM1341.66,2227.14L1343.47,2212.36C1336.64,2218.75 1329.75,2223.42 1322.82,2226.36C1315.89,2229.3 1308.27,2230.77 1299.97,2230.77C1285.8,2230.77 1275.05,2227.1 1267.74,2219.75C1260.43,2212.4 1257.55,2202.41 1259.1,2189.79C1260.86,2175.44 1267.57,2164.51 1279.21,2156.98C1290.85,2149.46 1307.8,2145.18 1330.06,2144.15L1350.68,2143.11L1351.35,2137.66C1352.81,2125.73 1347.75,2119.77 1336.17,2119.77C1325.45,2119.77 1318.76,2124.26 1316.1,2133.25L1274.24,2129.88C1282.43,2101.18 1305.11,2086.83 1342.29,2086.83C1362.86,2086.83 1377.52,2091.41 1386.25,2100.57C1394.98,2109.74 1398.18,2123.74 1395.87,2142.59L1385.49,2227.14L1341.66,2227.14ZM532.719,2194.16C532.719,2194.16 573.984,2106.41 593.679,2064.52C600.351,2050.33 614.705,2041.35 630.387,2041.55C630.946,2041.56 633.426,2041.57 633.987,2041.57C651.421,2041.8 663.819,2050.94 668.319,2070.98C680.02,2123.09 703.386,2227.14 703.386,2227.14L651.774,2227.14L645.503,2191.61L582.999,2191.61L570.829,2220.7C545.456,2206.66 532.719,2194.16 532.719,2194.16ZM1407.53,2227.14L1430.27,2041.96L1477.21,2041.96L1454.48,2227.14L1407.53,2227.14ZM1088.27,2227.14L1104.99,2090.98L1151.93,2090.98L1135.21,2227.14L1088.27,2227.14ZM1158.55,2227.14L1175.27,2090.98L1220.92,2090.98L1218.88,2107.58C1224.33,2101.18 1230.36,2096.43 1236.97,2093.31C1243.58,2090.2 1251.03,2088.64 1259.33,2088.64C1264.17,2088.64 1268.53,2089.08 1272.4,2089.94L1262.28,2130.14C1258.77,2129.1 1253.99,2128.59 1247.94,2128.59C1238.78,2128.59 1231.47,2130.4 1226.01,2134.03C1219.4,2138.53 1215.42,2146.31 1214.06,2157.37L1205.5,2227.14L1158.55,2227.14ZM1019.28,2227.14L1029.88,2140.77C1030.54,2135.41 1030.03,2131.52 1028.34,2129.1C1026.64,2126.68 1023.46,2125.47 1018.8,2125.47C1013.26,2125.47 1008.65,2127.12 1004.96,2130.4C1001.08,2133.86 998.768,2138.61 998.025,2144.66L987.898,2227.14L940.955,2227.14L951.559,2140.77C952.217,2135.41 951.701,2131.52 950.009,2129.1C948.318,2126.68 945.139,2125.47 940.47,2125.47C934.937,2125.47 930.327,2127.12 926.638,2130.4C922.755,2133.86 920.442,2138.61 919.699,2144.66L909.573,2227.14L862.63,2227.14L879.348,2090.98L924.995,2090.98L923.052,2106.8C934.023,2093.49 947.549,2086.83 963.629,2086.83C972.101,2086.83 979.184,2088.64 984.876,2092.28C990.568,2095.91 994.546,2101.18 996.809,2108.1C1003.23,2100.83 1010.07,2095.47 1017.33,2092.02C1024.58,2088.56 1032.53,2086.83 1041.18,2086.83C1055.01,2086.83 1065,2090.98 1071.16,2099.28C1077.32,2107.58 1079.42,2119.68 1077.46,2135.59L1066.22,2227.14L1019.28,2227.14ZM1347.17,2169.56L1332.03,2170.34C1323.15,2170.86 1316.53,2172.37 1312.15,2174.88C1307.78,2177.39 1305.29,2181.15 1304.67,2186.16C1303.65,2194.46 1308.25,2198.61 1318.45,2198.61C1326.23,2198.61 1332.64,2196.41 1337.67,2192C1342.71,2187.59 1345.68,2181.67 1346.6,2174.23L1347.17,2169.56ZM800.911,2157.37C802.354,2145.62 801.579,2137.14 798.585,2131.96C795.591,2126.77 790.29,2124.18 782.682,2124.18C767.294,2124.18 758.177,2135.76 755.333,2158.93C752.509,2181.93 758.705,2193.42 773.92,2193.42C781.528,2193.42 787.584,2190.57 792.089,2184.87C796.357,2179.68 799.138,2171.81 800.433,2161.26L800.911,2157.37ZM627.087,2088.12L600.061,2151.93L638.186,2151.93L627.087,2088.12ZM1106.57,2075.94L1110.75,2041.96L1158.21,2041.96L1154.04,2075.94L1106.57,2075.94Z" style="fill:rgb(0,69,160);fill-rule:nonzero;"/>
                </g>
            </g>
        </g>
    </g>
</svg>