<svg width="16" height="16" viewBox="0 0 16 16" fill="none" xmlns="http://www.w3.org/2000/svg">
<g clip-path="url(#clip0_7456_2099)">
<path d="M8 16C12.4187 16 16 12.4187 16 8C16 3.58125 12.4187 0 8 0C3.58125 0 0 3.58125 0 8C0 12.4187 3.58125 16 8 16ZM8 4C8.41562 4 8.75 4.33437 8.75 4.75V8.25C8.75 8.66562 8.41562 9 8 9C7.58437 9 7.25 8.66562 7.25 8.25V4.75C7.25 4.33437 7.58437 4 8 4ZM9 11C9 11.5531 8.55313 12 8 12C7.44688 12 7 11.5531 7 11C7 10.4469 7.44688 10 8 10C8.55313 10 9 10.4469 9 11Z" fill="#FFB340"/>
</g>
<defs>
<clipPath id="clip0_7456_2099">
<rect width="16" height="16" fill="white"/>
</clipPath>
</defs>
</svg>
