<svg xmlns="http://www.w3.org/2000/svg" viewBox="0 0 267.85 47.6"><defs><style>.cls-1{fill:#fff;}</style></defs><title>Confused Logo White RGB</title><g id="Layer_2" data-name="Layer 2"><g id="Logo"><g id="Logo-2" data-name="Logo"><g id="Dot_Com" data-name="Dot Com"><path id="Com_Bubble" data-name="Com Bubble" class="cls-1" d="M259.07,34.32A13,13,0,0,0,267,26.07c1.12-4,1-14.34.33-18.14A10,10,0,0,0,259.46.2C254-1,234.85,3.64,229.4,5.65c-4.11,1.53-9.85,4.51-10.53,13a31.86,31.86,0,0,0,.49,8.74c.91,3.48,3.87,6.63,10.41,7.52C237.33,36,252.27,36.5,259.07,34.32Zm-18-13.77v-1.5c0-1.74-.67-2.62-1.92-2.62s-1.93.88-1.93,2.62v1.5c0,1.75.69,2.65,1.93,2.65S241.1,22.3,241.1,20.55Zm22,4.95a.46.46,0,0,1-.45.45H260a.45.45,0,0,1-.43-.45V18.17c0-1.38-.32-1.78-1.31-1.78a4.08,4.08,0,0,0-1.65.38c0,.43.06.93.06,1.4V25.5a.44.44,0,0,1-.43.45h-2.6a.46.46,0,0,1-.45-.45V18.17c0-1.38-.26-1.78-1.25-1.78a4.08,4.08,0,0,0-1.63.55V25.5a.44.44,0,0,1-.43.45h-2.6a.46.46,0,0,1-.45-.45V14.06a.43.43,0,0,1,.43-.43h2.45a.44.44,0,0,1,.43.43v.48a5.65,5.65,0,0,1,3.18-1.08,3,3,0,0,1,2.53,1.06,6.33,6.33,0,0,1,3.51-1.06c2.83,0,3.69,1.89,3.69,4.71Zm-18.49-4.95c0,3.42-1.9,5.59-5.38,5.59s-5.39-2.17-5.39-5.59v-1.5c0-3.42,1.91-5.59,5.39-5.59s5.38,2.17,5.38,5.59Zm-12.93-4a18.91,18.91,0,0,0-2.62-.15c-1,0-1.77.58-1.77,2.49v1.81c0,1.91.8,2.49,1.77,2.49,1.22,0,2.35-.12,2.59-.14a.41.41,0,0,1,.48.35c0,.26.22,1.65.25,1.91s-.13.42-.45.5a14.48,14.48,0,0,1-3.11.32c-3,0-5-1.93-5-5.43V18.9c0-3.5,2-5.44,5-5.44a13.74,13.74,0,0,1,3.11.33c.32.08.48.23.45.49s-.22,1.67-.25,1.91A.38.38,0,0,1,231.63,16.56Z"/><path id="Dot" class="cls-1" d="M222.51,41.49a6.13,6.13,0,0,0-.9-3.64c-.93-1.23-2.52-1.67-4.72-1.67h-1.47c-2.19,0-3.78.44-4.71,1.67a5.89,5.89,0,0,0-.9,3.64,6.18,6.18,0,0,0,.9,3.8c.93,1.22,2.52,1.66,4.71,1.66h1.47c2.2,0,3.79-.44,4.72-1.66A6.33,6.33,0,0,0,222.51,41.49Z"/></g><path id="Confused" class="cls-1" d="M160.94,29.39c.13-3.18,1.91-5.14,4.72-5.14s4.49,2,4.62,5.14Zm4.72-12c-7.66,0-12.51,4.93-12.51,13.2V34.3c0,9.63,6.79,13.05,12.61,13.05a39.26,39.26,0,0,0,10.12-1.81,1.55,1.55,0,0,0,1-1.9c-.14-.51-.66-2.42-.81-3a1.46,1.46,0,0,0-1.59-1.13,51.54,51.54,0,0,1-8.27,1c-4.41,0-5.26-3.14-5.36-5.29h15.6a1.58,1.58,0,0,0,1.57-1.56V30.62C178.06,22.48,173.32,17.42,165.66,17.42ZM43.1,34.4c0,3.88-1.72,6.12-4.73,6.12s-4.73-2.24-4.73-6.12v-4c0-3.89,1.72-6.12,4.73-6.12s4.73,2.23,4.73,6.12Zm-4.73-17c-7.58,0-12.46,5-12.46,13v4c0,8,4.78,13,12.46,13s12.46-5,12.46-13v-4C50.83,22.38,46,17.42,38.37,17.42ZM197.66,40.56a33,33,0,0,1-4.19.25c-3.36,0-4.73-1.89-4.73-6.51V30.47c0-4.63,1.37-6.52,4.73-6.52a41.11,41.11,0,0,1,4.19.28ZM203.58,6.5,199,7.31a1.59,1.59,0,0,0-1.33,1.56v8.82a37.91,37.91,0,0,0-4.19-.27c-8,0-12.45,4.63-12.45,13V34.3c0,8.41,4.42,13.05,12.45,13.05A43,43,0,0,0,203.6,46c1.16-.3,1.78-.7,1.78-1.91V8.06A1.56,1.56,0,0,0,203.58,6.5ZM76.59,47a1.55,1.55,0,0,0,1.58-1.54V29.13c0-5.79-1.09-11.71-9.18-11.71a13.74,13.74,0,0,0-7.46,1.92A1.57,1.57,0,0,0,60,17.77H55.63a1.57,1.57,0,0,0-1.58,1.57v26A1.56,1.56,0,0,0,55.63,47H60.2a1.62,1.62,0,0,0,1.58-1.63V25.71a11.33,11.33,0,0,1,5-1.56c3.34,0,3.64.82,3.64,5V45.32A1.57,1.57,0,0,0,72,47Zm15.2,0a1.53,1.53,0,0,0,1.55-1.54V23.85h4.1A1.54,1.54,0,0,0,99,22.32v-3a1.57,1.57,0,0,0-1.58-1.57h-4.1V15.82c0-1.94.29-2.4,2.35-2.4.46,0,2,.09,2,.09a1.61,1.61,0,0,0,1.57-1.17c.16-.56.46-1.71.68-2.54a1.58,1.58,0,0,0-1.23-2,21.29,21.29,0,0,0-3.9-.46c-4.53,0-9.17,1-9.17,8.54v1.85H81.78a1.57,1.57,0,0,0-1.58,1.57v2.32a1.55,1.55,0,0,0,1.39,1.51c1,.18,4,.69,4,.69V45.39A1.55,1.55,0,0,0,87.17,47Zm26.3-1.66A1.57,1.57,0,0,0,119.66,47h4.57a1.56,1.56,0,0,0,1.58-1.55v-26a1.6,1.6,0,0,0-1.58-1.6h-4.59a1.56,1.56,0,0,0-1.55,1.55V38.91c-1.25.66-3.42,1.75-5,1.75-3.15,0-3.64-1.18-3.64-5.07V19.39a1.62,1.62,0,0,0-1.58-1.62h-4.57a1.59,1.59,0,0,0-1.58,1.62v16.2c0,7.1,2,11.71,9.18,11.71A12.89,12.89,0,0,0,118.09,45.29ZM14.64,47.35a45.09,45.09,0,0,0,8.17-.9,1.67,1.67,0,0,0,1.47-2c-.2-.81-.7-2.62-.83-3.08a1.7,1.7,0,0,0-1.79-1.48c-1.3,0-4.53.37-6.92.37-4.45,0-6.62-2.85-6.62-8.71v-7.3c0-5.94,2.11-8.7,6.62-8.7,2.39,0,5.1.21,6.84.38a1.58,1.58,0,0,0,1.67-1c.32-1.09.69-2.5,1-3.59a1.56,1.56,0,0,0-1.09-1.82,36.9,36.9,0,0,0-8.52-1C10.24,8.48,0,10,0,24.26v7.3C0,46.21,11.24,47.35,14.64,47.35Zm125.64.25c7.6,0,10.32-4.63,10.32-8.59s-2.08-6.48-5.57-8.32-4.83-2.58-6-3.23-1.68-1-1.68-1.94,1-1.57,2.87-1.57a53.28,53.28,0,0,1,7.17.78,1.59,1.59,0,0,0,1.88-1.25c.25-.87.45-1.53.7-2.56a1.62,1.62,0,0,0-1.06-2.05,32,32,0,0,0-9.24-1.45c-6.46,0-10,3-10,8.53,0,2.78,1.45,5,4.45,6.86L141,37.06c1.53.94,1.81,1.77,1.81,2.24,0,1-.54,1.76-3,1.76a50.56,50.56,0,0,1-7.67-.92,1.55,1.55,0,0,0-1.77,1c-.18.65-.74,2.6-.91,3.3a1.56,1.56,0,0,0,1,2A43,43,0,0,0,140.28,47.6Z"/></g></g></g></svg>