<svg width="16" height="16" viewBox="0 0 16 16" fill="none" xmlns="http://www.w3.org/2000/svg">
<path d="M13.7797 3.65539L12.3442 2.21984C12.2047 2.07901 12.0125 2 11.8133 2H7.97902C7.15052 2 6.47905 2.67172 6.47905 3.5L6.47951 9.5C6.50015 10.3297 7.17279 11 8.00012 11H12.5C13.325 11 14 10.325 14 9.5V4.18555C14 3.9868 13.9203 3.79602 13.7797 3.65539ZM12.875 9.5C12.875 9.70709 12.7071 9.875 12.5 9.875H7.97902C7.77189 9.875 7.60403 9.70709 7.60403 9.5V3.50305C7.60403 3.29595 7.77193 3.12805 7.97902 3.12805H10.979L11.0001 4.25C11.0001 4.66414 11.3359 5 11.75 5H12.8539V9.5H12.875ZM8.37511 12.5C8.37511 12.7071 8.20721 12.875 8.00012 12.875H3.47911C3.27198 12.875 3.10412 12.7071 3.10412 12.5L3.12474 6.50234C3.12474 6.29525 3.29265 6.12734 3.49974 6.12734H5.75016V5H3.49997C2.67147 5 2 5.67148 2 6.5L2.00023 12.5C2.00028 13.3273 2.67194 14 3.50021 14H8.00012C8.8251 14 9.50009 13.325 9.50009 12.5V11.75H8.3962L8.37511 12.5Z" fill="black"/>
</svg>
