<svg width="16" height="16" viewBox="0 0 16 16" fill="none" xmlns="http://www.w3.org/2000/svg">
<path d="M13.1232 2.28571C12.7969 2.28571 12.5321 2.55054 12.5321 2.87697V5.39229C11.5543 3.75326 9.76608 2.68259 7.80056 2.68259C4.75869 2.68259 2.28578 5.15578 2.28578 8.19831C2.28578 11.2408 4.75869 13.7143 7.80056 13.7143C9.08899 13.7143 10.3449 13.2627 11.335 12.4389C11.586 12.2295 11.6198 11.857 11.4105 11.6059C11.2011 11.3542 10.8277 11.3212 10.5777 11.5305C9.80056 12.177 8.81534 12.5342 7.80303 12.5342C5.41312 12.5342 3.46805 10.5887 3.46805 8.19831C3.46805 5.80789 5.41386 3.8624 7.80303 3.8624C9.44194 3.8624 10.9262 4.80546 11.6577 6.22744H9.18234C8.85475 6.22744 8.5912 6.49351 8.5912 6.8187C8.5912 7.1439 8.85475 7.40996 9.18234 7.40996H13.1232C13.4496 7.40996 13.7144 7.14636 13.7144 6.8187V2.87697C13.7144 2.55054 13.4496 2.28571 13.1232 2.28571Z" fill="black"/>
</svg>
