<svg width="144" height="20" viewBox="0 0 144 20" fill="none" xmlns="http://www.w3.org/2000/svg">
<path d="M1.34393 14V5.27273H4.29279C4.97745 5.27273 5.53711 5.39631 5.97177 5.64347C6.40927 5.88778 6.73313 6.21875 6.94336 6.63636C7.15359 7.05398 7.2587 7.51989 7.2587 8.03409C7.2587 8.5483 7.15359 9.01562 6.94336 9.43608C6.73597 9.85653 6.41495 10.1918 5.98029 10.4418C5.54563 10.6889 4.98881 10.8125 4.30984 10.8125H2.1962V9.875H4.27575C4.7445 9.875 5.12092 9.79403 5.40501 9.6321C5.6891 9.47017 5.89506 9.25142 6.0229 8.97585C6.15359 8.69744 6.21893 8.38352 6.21893 8.03409C6.21893 7.68466 6.15359 7.37216 6.0229 7.09659C5.89506 6.82102 5.68768 6.60511 5.40075 6.44886C5.11381 6.28977 4.73313 6.21023 4.2587 6.21023H2.40075V14H1.34393ZM11.4135 14.1364C10.8226 14.1364 10.3042 13.9957 9.85813 13.7145C9.41495 13.4332 9.06836 13.0398 8.81836 12.5341C8.5712 12.0284 8.44762 11.4375 8.44762 10.7614C8.44762 10.0795 8.5712 9.48437 8.81836 8.97585C9.06836 8.46733 9.41495 8.07244 9.85813 7.79119C10.3042 7.50994 10.8226 7.36932 11.4135 7.36932C12.0044 7.36932 12.5215 7.50994 12.9647 7.79119C13.4107 8.07244 13.7573 8.46733 14.0044 8.97585C14.2544 9.48437 14.3794 10.0795 14.3794 10.7614C14.3794 11.4375 14.2544 12.0284 14.0044 12.5341C13.7573 13.0398 13.4107 13.4332 12.9647 13.7145C12.5215 13.9957 12.0044 14.1364 11.4135 14.1364ZM11.4135 13.233C11.8624 13.233 12.2317 13.1179 12.5215 12.8878C12.8113 12.6577 13.0257 12.3551 13.165 11.9801C13.3042 11.6051 13.3738 11.1989 13.3738 10.7614C13.3738 10.3239 13.3042 9.91619 13.165 9.53835C13.0257 9.16051 12.8113 8.85511 12.5215 8.62216C12.2317 8.3892 11.8624 8.27273 11.4135 8.27273C10.9647 8.27273 10.5953 8.3892 10.3056 8.62216C10.0158 8.85511 9.80131 9.16051 9.66211 9.53835C9.5229 9.91619 9.4533 10.3239 9.4533 10.7614C9.4533 11.1989 9.5229 11.6051 9.66211 11.9801C9.80131 12.3551 10.0158 12.6577 10.3056 12.8878C10.5953 13.1179 10.9647 13.233 11.4135 13.233ZM17.1749 14L15.1806 7.45455H16.2374L17.6522 12.4659H17.7203L19.1181 7.45455H20.1919L21.5726 12.4489H21.6408L23.0556 7.45455H24.1124L22.1181 14H21.1294L19.6976 8.97159H19.5953L18.1635 14H17.1749ZM27.9636 14.1364C27.3329 14.1364 26.7889 13.9972 26.3315 13.7188C25.877 13.4375 25.5261 13.0455 25.2789 12.5426C25.0346 12.0369 24.9125 11.4489 24.9125 10.7784C24.9125 10.108 25.0346 9.51705 25.2789 9.00568C25.5261 8.49148 25.8699 8.09091 26.3102 7.80398C26.7534 7.5142 27.2704 7.36932 27.8613 7.36932C28.2022 7.36932 28.5389 7.42614 28.8713 7.53977C29.2037 7.65341 29.5062 7.83807 29.7789 8.09375C30.0517 8.34659 30.269 8.68182 30.4309 9.09943C30.5929 9.51705 30.6738 10.0312 30.6738 10.642V11.0682H25.6284V10.1989H29.6511C29.6511 9.82955 29.5772 9.5 29.4295 9.21023C29.2846 8.92045 29.0772 8.69176 28.8074 8.52415C28.5403 8.35653 28.225 8.27273 27.8613 8.27273C27.4608 8.27273 27.1142 8.37216 26.8216 8.57102C26.5318 8.76705 26.3088 9.02273 26.1525 9.33807C25.9963 9.65341 25.9181 9.99148 25.9181 10.3523V10.9318C25.9181 11.4261 26.0034 11.8452 26.1738 12.1889C26.3471 12.5298 26.5872 12.7898 26.894 12.9688C27.2008 13.1449 27.5574 13.233 27.9636 13.233C28.2278 13.233 28.4664 13.196 28.6795 13.1222C28.8954 13.0455 29.0815 12.9318 29.2377 12.7812C29.394 12.6278 29.5147 12.4375 29.6 12.2102L30.5716 12.483C30.4693 12.8125 30.2974 13.1023 30.0559 13.3523C29.8145 13.5994 29.5162 13.7926 29.161 13.9318C28.8059 14.0682 28.4068 14.1364 27.9636 14.1364ZM32.2037 14V7.45455H33.1752V8.44318H33.2434C33.3627 8.11932 33.5787 7.85653 33.8912 7.65483C34.2037 7.45312 34.5559 7.35227 34.948 7.35227C35.0218 7.35227 35.1142 7.35369 35.225 7.35653C35.3358 7.35937 35.4196 7.36364 35.4764 7.36932V8.39205C35.4423 8.38352 35.3642 8.37074 35.242 8.35369C35.1227 8.33381 34.9963 8.32386 34.8627 8.32386C34.5446 8.32386 34.2605 8.39062 34.0105 8.52415C33.7633 8.65483 33.5673 8.83665 33.4224 9.0696C33.2804 9.29972 33.2093 9.5625 33.2093 9.85795V14H32.2037ZM39.2136 14.1364C38.5829 14.1364 38.0389 13.9972 37.5815 13.7188C37.127 13.4375 36.7761 13.0455 36.5289 12.5426C36.2846 12.0369 36.1625 11.4489 36.1625 10.7784C36.1625 10.108 36.2846 9.51705 36.5289 9.00568C36.7761 8.49148 37.1199 8.09091 37.5602 7.80398C38.0034 7.5142 38.5204 7.36932 39.1113 7.36932C39.4522 7.36932 39.7889 7.42614 40.1213 7.53977C40.4537 7.65341 40.7562 7.83807 41.0289 8.09375C41.3017 8.34659 41.519 8.68182 41.6809 9.09943C41.8429 9.51705 41.9238 10.0312 41.9238 10.642V11.0682H36.8784V10.1989H40.9011C40.9011 9.82955 40.8272 9.5 40.6795 9.21023C40.5346 8.92045 40.3272 8.69176 40.0574 8.52415C39.7903 8.35653 39.475 8.27273 39.1113 8.27273C38.7108 8.27273 38.3642 8.37216 38.0716 8.57102C37.7818 8.76705 37.5588 9.02273 37.4025 9.33807C37.2463 9.65341 37.1681 9.99148 37.1681 10.3523V10.9318C37.1681 11.4261 37.2534 11.8452 37.4238 12.1889C37.5971 12.5298 37.8372 12.7898 38.144 12.9688C38.4508 13.1449 38.8074 13.233 39.2136 13.233C39.4778 13.233 39.7164 13.196 39.9295 13.1222C40.1454 13.0455 40.3315 12.9318 40.4877 12.7812C40.644 12.6278 40.7647 12.4375 40.85 12.2102L41.8216 12.483C41.7193 12.8125 41.5474 13.1023 41.3059 13.3523C41.0645 13.5994 40.7662 13.7926 40.411 13.9318C40.0559 14.0682 39.6568 14.1364 39.2136 14.1364ZM45.9252 14.1364C45.3798 14.1364 44.8983 13.9986 44.4806 13.723C44.063 13.4446 43.7363 13.0526 43.5005 12.5469C43.2647 12.0384 43.1468 11.4375 43.1468 10.7443C43.1468 10.0568 43.2647 9.46023 43.5005 8.95455C43.7363 8.44886 44.0645 8.05824 44.4849 7.78267C44.9054 7.5071 45.3912 7.36932 45.9423 7.36932C46.3684 7.36932 46.7051 7.44034 46.9522 7.58239C47.2022 7.72159 47.3926 7.88068 47.5233 8.05966C47.6568 8.2358 47.7605 8.38068 47.8343 8.49432H47.9196V5.27273H48.9252V14H47.9537V12.9943H47.8343C47.7605 13.1136 47.6554 13.2642 47.519 13.446C47.3826 13.625 47.188 13.7855 46.9352 13.9276C46.6824 14.0668 46.3457 14.1364 45.9252 14.1364ZM46.0616 13.233C46.465 13.233 46.8059 13.1278 47.0843 12.9176C47.3627 12.7045 47.5744 12.4105 47.7193 12.0355C47.8642 11.6577 47.9366 11.2216 47.9366 10.7273C47.9366 10.2386 47.8656 9.81108 47.7235 9.4446C47.5815 9.07528 47.3713 8.78835 47.0929 8.58381C46.8145 8.37642 46.4707 8.27273 46.0616 8.27273C45.6355 8.27273 45.2804 8.3821 44.9963 8.60085C44.715 8.81676 44.5034 9.1108 44.3613 9.48295C44.2221 9.85227 44.1525 10.267 44.1525 10.7273C44.1525 11.1932 44.2235 11.6165 44.3656 11.9972C44.5105 12.375 44.7235 12.6761 45.0048 12.9006C45.2889 13.1222 45.6412 13.233 46.0616 13.233ZM54.4181 14V5.27273H55.4238V8.49432H55.5091C55.5829 8.38068 55.6852 8.2358 55.8159 8.05966C55.9494 7.88068 56.1397 7.72159 56.3869 7.58239C56.6369 7.44034 56.975 7.36932 57.4011 7.36932C57.9522 7.36932 58.438 7.5071 58.8585 7.78267C59.2789 8.05824 59.6071 8.44886 59.8429 8.95455C60.0787 9.46023 60.1966 10.0568 60.1966 10.7443C60.1966 11.4375 60.0787 12.0384 59.8429 12.5469C59.6071 13.0526 59.2804 13.4446 58.8627 13.723C58.4451 13.9986 57.9636 14.1364 57.4181 14.1364C56.9977 14.1364 56.661 14.0668 56.4082 13.9276C56.1554 13.7855 55.9608 13.625 55.8244 13.446C55.688 13.2642 55.5829 13.1136 55.5091 12.9943H55.3897V14H54.4181ZM55.4068 10.7273C55.4068 11.2216 55.4792 11.6577 55.6241 12.0355C55.769 12.4105 55.9806 12.7045 56.2591 12.9176C56.5375 13.1278 56.8784 13.233 57.2818 13.233C57.7022 13.233 58.0531 13.1222 58.3343 12.9006C58.6184 12.6761 58.8315 12.375 58.9735 11.9972C59.1184 11.6165 59.1909 11.1932 59.1909 10.7273C59.1909 10.267 59.1199 9.85227 58.9778 9.48295C58.8386 9.1108 58.627 8.81676 58.3429 8.60085C58.0616 8.3821 57.7079 8.27273 57.2818 8.27273C56.8727 8.27273 56.5289 8.37642 56.2505 8.58381C55.9721 8.78835 55.7619 9.07528 55.6199 9.4446C55.4778 9.81108 55.4068 10.2386 55.4068 10.7273ZM62.1483 16.4545C61.9778 16.4545 61.8258 16.4403 61.6923 16.4119C61.5588 16.3864 61.4664 16.3608 61.4153 16.3352L61.671 15.4489C61.9153 15.5114 62.1312 15.5341 62.3187 15.517C62.5062 15.5 62.6724 15.4162 62.8173 15.2656C62.965 15.1179 63.1 14.8778 63.2221 14.5455L63.4096 14.0341L60.9892 7.45455H62.0801L63.8869 12.6705H63.9551L65.7619 7.45455H66.8528L64.0744 14.9545C63.9494 15.2926 63.7946 15.5724 63.6099 15.794C63.4252 16.0185 63.2108 16.1847 62.9664 16.2926C62.725 16.4006 62.4522 16.4545 62.1483 16.4545Z" fill="black"/>
<g clip-path="url(#clip0_5410_8367)">
<path d="M84.0003 4.34036L84.1542 5.31034C84.8 4.27236 85.6676 4.12024 86.5173 4.12024C87.3849 4.12024 88.2167 4.46027 88.6764 4.9202L87.7409 6.72234C87.3151 6.36442 86.9251 6.1783 86.2454 6.1783C85.1577 6.1783 84.1542 6.75635 84.1542 8.30437V12.7265H82.0791V4.34036H84.0003Z" fill="#1C2745"/>
<path d="M96.1062 4.34008H98.0954V12.7262H96.1402L96.0382 11.5021C95.5624 12.4882 94.2529 12.9642 93.3173 12.9821C90.8344 12.9983 88.999 11.4681 88.999 8.52599C88.999 5.63397 90.9203 4.11996 93.3692 4.13785C94.4908 4.13785 95.5624 4.66579 96.0382 5.49796L96.1062 4.34008ZM91.0741 8.52421C91.0741 10.1223 92.1796 11.0762 93.5571 11.0762C96.8217 11.0762 96.8217 5.99011 93.5571 5.99011C92.1796 5.98832 91.0741 6.92429 91.0741 8.52421Z" fill="#1C2745"/>
<path d="M106.354 12.7247V8.33657C106.354 7.06058 105.657 6.0906 104.331 6.0906C103.056 6.0906 102.188 7.16258 102.188 8.43858V12.7247H100.131V4.32246H101.777L102.12 5.46245C102.97 4.62848 103.819 4.20435 104.875 4.20435C106.846 4.20435 108.428 5.68436 108.428 8.32047V12.7265H106.354V12.7247Z" fill="#1C2745"/>
<path d="M116.065 6.56831C115.469 6.00637 114.789 5.82025 113.991 5.82025C113.006 5.82025 112.462 6.12627 112.462 6.65421C112.462 7.19825 112.955 7.50428 114.025 7.57228C115.607 7.67429 117.612 8.03222 117.612 10.2603C117.612 11.7403 116.404 13.0163 114.007 13.0163C112.682 13.0163 111.354 12.7944 110.131 11.5202L111.151 10.0402C111.746 10.7041 113.106 11.1963 114.041 11.2142C114.823 11.2321 115.555 10.8222 115.555 10.2102C115.555 9.63213 115.079 9.39411 113.889 9.32611C112.308 9.2062 110.421 8.62816 110.421 6.724C110.421 4.78585 112.428 4.104 113.957 4.104C115.267 4.104 116.252 4.35992 117.222 5.20999L116.065 6.56831Z" fill="#1C2745"/>
<path d="M124.847 12.7244V8.23427C124.847 7.12829 124.269 6.12431 123.13 6.12431C122.008 6.12431 121.345 7.12829 121.345 8.23427V12.7244H119.27V4.32217H121.191L121.345 5.34225C121.786 4.49218 122.756 4.18616 123.556 4.18616C124.559 4.18616 125.561 4.59419 126.039 5.75028C126.786 4.56019 127.756 4.22016 128.844 4.22016C131.225 4.22016 132.396 5.68228 132.396 8.20027V12.7244H130.321V8.20027C130.321 7.09429 129.861 6.15832 128.74 6.15832C127.618 6.15832 126.921 7.12829 126.921 8.23248V12.7226H124.847V12.7244Z" fill="#1C2745"/>
<path d="M136.513 4.30627H134.438V12.7264H136.513V4.30627Z" fill="#1C2745"/>
<path d="M78.5338 10.6576C78.2279 10.8115 77.854 10.9135 77.5302 10.9135C76.8845 10.9135 76.4426 10.5215 76.4426 9.72337V6.36068V4.31335H74.3854H74.3836H71.72H71.2871C71.2871 4.31514 71.2871 4.31693 71.2871 4.32051C71.2871 4.79655 71.4499 5.23322 71.7218 5.5804C71.7737 5.64662 71.8291 5.71105 71.89 5.7701C72.2281 6.10655 72.686 6.32489 73.1923 6.35889C73.203 6.35889 73.2119 6.36068 73.2227 6.36247H73.4391H74.3836V6.36068H74.3854V9.72337C74.3854 11.8154 75.575 12.8534 77.3943 12.7854C78.024 12.7693 78.5159 12.6655 79.1116 12.4275L78.5338 10.6576Z" fill="#1C2745"/>
<path d="M79.9769 3.36186C79.6388 3.02541 79.1808 2.80707 78.6746 2.77307H77.9912V3.39944V4.01507V4.2853V4.28709V4.90451V4.91345V4.91882V5.33938C77.993 5.33938 77.9948 5.33938 77.9984 5.33938C78.4653 5.33938 78.8946 5.1819 79.238 4.91882C79.2398 4.91703 79.2416 4.91524 79.2434 4.91345C79.247 4.90987 79.2524 4.90809 79.2559 4.90451C79.3221 4.85261 79.3865 4.79713 79.4456 4.73628C79.5779 4.60385 79.6906 4.45173 79.7819 4.28709C79.925 4.03117 80.0144 3.74126 80.0341 3.43344V3.42628C80.0162 3.40302 79.9965 3.38154 79.9769 3.36186Z" fill="#DD112D"/>
<path d="M80.0343 2.77124V2.76587V0.720337H77.9896H74.3439H74.3296H73.9092C73.9092 0.722127 73.9092 0.723917 73.9092 0.727496C73.9092 1.19459 74.0666 1.62409 74.3296 1.9677C74.3349 1.97486 74.3385 1.98023 74.3439 1.98739C74.3958 2.0536 74.4512 2.11803 74.512 2.17709C74.8501 2.51353 75.3081 2.73187 75.8143 2.76587H77.9896V2.77124V2.77303H78.6729C79.1792 2.80703 79.6371 3.02537 79.9752 3.36181C79.9949 3.3815 80.0146 3.40298 80.0343 3.42445V2.77124Z" fill="#FF2D4E"/>
<path d="M141.703 10.9563C141.057 10.9563 140.615 10.5644 140.615 9.76625V6.34807H141.559C141.595 6.34986 141.631 6.35165 141.669 6.35165C141.706 6.35165 141.742 6.34986 141.778 6.34807C142.297 6.32123 142.765 6.09932 143.11 5.75571C143.483 5.38526 143.713 4.87164 143.713 4.30612C143.713 4.30433 143.713 4.30254 143.713 4.29896H140.611V2.76526L138.56 3.27888V4.30433V4.35623V5.00944V6.14227V9.76445C138.56 11.8565 139.749 12.8945 141.568 12.8265C142.198 12.8104 142.69 12.7066 143.286 12.4686L142.708 10.7004C142.4 10.8543 142.026 10.9563 141.703 10.9563Z" fill="#1C2745"/>
<path d="M78.5338 10.6576C78.2279 10.8115 77.854 10.9135 77.5302 10.9135C76.8845 10.9135 76.4426 10.5215 76.4426 9.72337V6.36068V4.31335H74.3854H74.3836H71.72H71.2871C71.2871 4.31514 71.2871 4.31693 71.2871 4.32051C71.2871 4.79655 71.4499 5.23322 71.7218 5.5804C71.7737 5.64662 71.8291 5.71105 71.89 5.7701C72.2281 6.10655 72.686 6.32489 73.1923 6.35889C73.203 6.35889 73.2119 6.36068 73.2227 6.36247H73.4391H74.3836V6.36068H74.3854V9.72337C74.3854 11.8154 75.575 12.8534 77.3943 12.7854C78.024 12.7693 78.5159 12.6655 79.1116 12.4275L78.5338 10.6576Z" fill="#1C2745"/>
<g clip-path="url(#clip1_5410_8367)">
<path d="M79.9769 3.47953C79.6388 3.14308 79.1808 2.92475 78.6746 2.89075H77.9912V3.51711V4.13274V4.40297V4.40476V5.02218V5.03113V5.0365V5.45706C77.993 5.45706 77.9948 5.45706 77.9984 5.45706C78.4653 5.45706 78.8946 5.29957 79.238 5.0365C79.2398 5.03471 79.2416 5.03292 79.2434 5.03113C79.247 5.02755 79.2524 5.02576 79.2559 5.02218C79.3221 4.97028 79.3865 4.91481 79.4456 4.85396C79.5779 4.72153 79.6906 4.56941 79.7819 4.40476C79.925 4.14885 80.0144 3.85893 80.0341 3.55112V3.54396C80.0162 3.52069 79.9965 3.49922 79.9769 3.47953Z" fill="#DD112D"/>
<path d="M80.0343 2.88892V2.88355V0.838013H77.9896H74.3439H74.3296H73.9092C73.9092 0.839802 73.9092 0.841592 73.9092 0.845172C73.9092 1.31226 74.0666 1.74177 74.3296 2.08538C74.3349 2.09254 74.3385 2.0979 74.3439 2.10506C74.3958 2.17128 74.4512 2.2357 74.512 2.29476C74.8501 2.63121 75.3081 2.84954 75.8143 2.88355H77.9896V2.88892V2.8907H78.6729C79.1792 2.92471 79.6371 3.14304 79.9752 3.47949C79.9949 3.49918 80.0146 3.52065 80.0343 3.54213V2.88892Z" fill="#FF2D4E"/>
</g>
<g clip-path="url(#clip2_5410_8367)">
<path d="M124.777 17.8284L125.04 17.3774C125.26 17.5313 125.581 17.6226 125.883 17.6226C126.137 17.6226 126.285 17.5402 126.285 17.4024C126.285 17.2593 126.157 17.1913 125.831 17.1626C125.223 17.1143 124.86 16.8459 124.86 16.4199C124.86 15.9743 125.271 15.6719 125.903 15.6719C126.271 15.6719 126.602 15.7721 126.851 15.9403L126.591 16.3806C126.394 16.2553 126.174 16.198 125.931 16.198C125.634 16.198 125.48 16.275 125.48 16.4181C125.48 16.547 125.6 16.615 125.892 16.6436C126.577 16.7099 126.911 16.9461 126.911 17.4006C126.911 17.8606 126.505 18.163 125.854 18.163C125.443 18.163 125.078 18.0431 124.777 17.8284Z" fill="#1C2745"/>
<path d="M129.656 17.1288H127.831C127.874 17.4258 128.133 17.6227 128.516 17.6227C128.77 17.6227 129.024 17.5368 129.176 17.3972L129.531 17.7605C129.282 18.0146 128.903 18.1632 128.491 18.1632C127.692 18.1632 127.184 17.68 127.184 16.9229C127.184 16.1856 127.686 15.6881 128.429 15.6881C129.287 15.6881 129.761 16.2536 129.656 17.1288ZM127.842 16.7082H129.058C129.035 16.4022 128.804 16.2107 128.45 16.2107C128.114 16.2089 127.888 16.3914 127.842 16.7082Z" fill="#1C2745"/>
<path d="M129.976 16.9193C129.976 16.182 130.487 15.6844 131.249 15.6844C131.598 15.6844 131.906 15.8097 132.158 16.0531L131.789 16.4504C131.655 16.3162 131.469 16.2392 131.273 16.2392C130.881 16.2392 130.607 16.5166 130.607 16.9193C130.607 17.3219 130.875 17.5993 131.273 17.5993C131.484 17.5993 131.675 17.517 131.818 17.3703L132.192 17.7729C131.924 18.0324 131.623 18.1559 131.258 18.1559C130.478 18.1541 129.976 17.6709 129.976 16.9193Z" fill="#1C2745"/>
<path d="M134.897 15.7363V18.1022H134.346L134.303 17.8284C134.117 18.0342 133.844 18.1487 133.532 18.1487C132.944 18.1487 132.556 17.7263 132.556 17.057V15.7345H133.193V17.0177C133.193 17.3809 133.389 17.5921 133.695 17.5921C134.035 17.5921 134.26 17.338 134.26 16.9747V15.7345H134.897V15.7363Z" fill="#1C2745"/>
<path d="M137.382 15.9029L137.105 16.3969C136.97 16.3056 136.856 16.2716 136.722 16.2716C136.373 16.2716 136.148 16.515 136.148 16.9463V18.1006H135.511V15.7347H136.062L136.114 16.0318C136.296 15.7884 136.52 15.6864 136.779 15.6864C136.999 15.6882 137.23 15.7598 137.382 15.9029Z" fill="#1C2745"/>
<path d="M137.675 15.7365H138.312V18.1023H137.675V15.7365Z" fill="#1C2745"/>
<path d="M140.552 18.0146C140.355 18.1059 140.183 18.1399 139.972 18.1399C139.489 18.1399 139.167 17.8804 139.167 17.263V16.2572H138.741V15.7346H139.167V15.1315L139.798 15.0653V15.7364H140.435V16.259H139.798V17.2647C139.798 17.4795 139.909 17.5905 140.101 17.5905C140.192 17.5905 140.301 17.5618 140.383 17.5242L140.552 18.0146Z" fill="#1C2745"/>
<path d="M143.276 15.7365L141.796 19.1618H141.111L141.58 18.0737L140.651 15.7365H141.337L141.685 16.6617L141.934 17.3847L142.208 16.6617L142.585 15.7365H143.276Z" fill="#1C2745"/>
</g>
</g>
<defs>
<clipPath id="clip0_5410_8367">
<rect width="72.4258" height="18.3239" fill="white" transform="translate(71.2871 0.838013)"/>
</clipPath>
<clipPath id="clip1_5410_8367">
<rect width="6.12507" height="4.619" fill="white" transform="translate(73.9092 0.838013)"/>
</clipPath>
<clipPath id="clip2_5410_8367">
<rect width="18.4986" height="4.09643" fill="white" transform="translate(124.777 15.0654)"/>
</clipPath>
</defs>
</svg>
